<?xml version="1.0" standalone="no"?>
<!DOCTYPE svg PUBLIC "-//W3C//DTD SVG 20010904//EN"
 "http://www.w3.org/TR/2001/REC-SVG-20010904/DTD/svg10.dtd">
<svg version="1.0" xmlns="http://www.w3.org/2000/svg"
 width="225.000000pt" height="276.000000pt" viewBox="0 0 225.000000 276.000000"
 preserveAspectRatio="xMidYMid meet">

<g transform="translate(0.000000,276.000000) scale(0.100000,-0.100000)"
 stroke="none">
<path d="M686 2702 c-2 -4 -4 -59 -3 -122 1 -133 -11 -180 -79 -302 -85 -155
-99 -200 -99 -325 l0 -112 50 -98 51 -98 -38 -140 c-49 -179 -93 -377 -108
-483 -11 -76 -15 -85 -46 -108 -19 -15 -40 -45 -50 -70 -18 -47 -19 -48 -139
-74 -101 -22 -99 -45 8 -115 l84 -54 17 -64 18 -65 -26 -40 c-14 -23 -23 -48
-20 -57 7 -17 48 -19 112 -5 41 10 45 8 95 -29 29 -21 80 -53 114 -70 l62 -31
3 -51 c4 -75 26 -85 76 -36 42 41 54 43 132 21 30 -8 104 -18 163 -23 l108 -7
42 -42 c63 -62 110 -50 91 22 -5 21 -2 27 22 37 16 6 61 27 99 45 l70 34 55
-15 c74 -20 119 -19 127 2 6 16 4 22 -55 109 l-33 49 93 45 c128 62 129 76 11
121 -78 31 -88 38 -94 64 -4 17 -10 37 -13 46 -6 14 5 17 76 22 48 3 103 14
129 25 43 19 119 85 119 104 0 4 8 8 17 8 9 0 36 10 61 21 78 38 117 123 132
291 10 115 2 160 -37 200 -27 28 -162 102 -232 126 -28 10 -32 15 -27 34 4 13
10 62 13 109 6 91 -7 175 -34 218 -13 20 -14 34 -3 95 10 62 10 86 -6 171 -14
76 -17 141 -15 270 3 250 -19 361 -72 353 -16 -2 -34 -28 -72 -103 -27 -55
-72 -132 -99 -170 -63 -88 -111 -191 -132 -280 -10 -38 -19 -72 -20 -74 -2 -2
-41 2 -87 9 -73 11 -98 10 -187 -5 l-104 -17 -18 24 c-33 40 -56 99 -82 213
-56 245 -134 405 -195 405 -11 0 -22 -4 -25 -8z m113 -325 c1 -20 -6 -81 -15
-135 -11 -66 -14 -133 -11 -210 l4 -113 -21 20 c-42 40 -83 16 -72 -41 17 -92
18 -106 7 -113 -19 -11 -59 22 -82 67 -12 24 -24 70 -27 105 -7 94 11 151 96
304 38 69 72 168 72 212 0 19 3 37 8 41 10 11 41 -90 41 -137z m906 -64 c1
-95 6 -175 13 -200 16 -52 17 -182 3 -196 -23 -23 -101 77 -127 162 -17 55
-18 102 -3 156 11 43 100 235 109 235 3 0 5 -71 5 -157z m-387 -447 c44 -23
67 -55 120 -166 84 -174 120 -205 327 -283 76 -29 138 -56 139 -62 0 -5 -17
-12 -39 -15 -50 -7 -100 -36 -114 -67 -37 -82 21 -199 109 -218 37 -8 38 -19
2 -76 -37 -56 -56 -73 -117 -100 -41 -18 -61 -21 -131 -16 -71 4 -95 11 -171
47 -118 57 -232 169 -288 282 -36 74 -40 113 -9 87 19 -15 44 -4 44 20 0 31
-38 51 -96 51 -43 0 -57 -5 -83 -29 -33 -31 -42 -75 -16 -84 8 -4 23 5 35 21
18 22 23 24 30 12 6 -8 10 -21 10 -28 0 -23 57 -128 99 -186 83 -112 239 -216
369 -246 76 -18 197 -9 249 18 49 25 63 27 63 9 0 -37 -87 -85 -168 -93 -278
-29 -783 243 -884 475 -57 133 -11 255 104 275 45 8 58 29 58 90 0 61 12 89
62 140 24 25 56 61 73 82 52 65 158 94 223 60z m399 -28 c41 -39 63 -112 63
-206 0 -78 -15 -132 -36 -132 -23 0 -111 47 -135 72 -58 61 -79 193 -40 252
42 63 92 67 148 14z m333 -787 c0 -93 -107 -207 -148 -158 -8 9 -2 31 24 82
28 56 42 73 72 87 50 23 52 22 52 -11z m-1081 -119 c107 -90 214 -150 350
-198 35 -12 68 -28 72 -36 5 -7 9 -34 9 -60 0 -47 0 -47 -42 -60 -46 -13 -239
-16 -301 -4 -34 6 -40 13 -71 74 -47 94 -76 194 -76 263 0 32 3 59 6 59 3 0
27 -17 53 -38z m-519 -112 c43 -105 305 -245 550 -295 123 -26 328 -26 397 -1
60 23 101 57 115 97 12 34 28 29 28 -9 0 -162 -360 -208 -713 -91 -234 78
-407 206 -407 302 0 36 14 34 30 -3z m-93 -116 c-3 -20 -8 -39 -11 -41 -5 -5
-63 23 -85 41 -11 9 -6 13 25 23 69 21 77 18 71 -23z m186 -152 c9 -10 20 -32
23 -49 5 -24 2 -33 -12 -41 -31 -15 -145 -44 -152 -38 -5 6 45 83 81 124 25
27 39 28 60 4z m1115 -42 c24 0 12 -26 -17 -37 -35 -13 -41 -9 -41 25 0 20 4
23 23 18 12 -3 28 -6 35 -6z m-794 -106 c29 -28 19 -60 -40 -123 -31 -34 -61
-61 -66 -61 -12 0 -7 168 6 188 11 17 82 15 100 -4z m648 -21 c31 -34 79 -105
74 -111 -2 -2 -21 1 -42 7 -132 34 -124 30 -124 61 0 19 9 35 26 49 34 27 35
26 66 -6z m-294 -36 c11 -13 32 -122 32 -164 0 -13 -6 -23 -14 -23 -19 0 -126
121 -126 142 0 44 81 78 108 45z"/>
<path d="M1301 1647 c-6 -8 -14 -28 -17 -46 -13 -63 -80 -66 -108 -6 -29 61
-81 35 -56 -29 19 -50 58 -76 112 -76 43 0 54 4 78 30 33 35 49 103 30 125
-15 19 -24 19 -39 2z"/>
<path d="M1607 1133 c-11 -10 -8 -41 4 -49 6 -3 18 1 27 9 13 13 13 19 2 31
-14 17 -23 20 -33 9z"/>
<path d="M1460 1080 c-11 -7 -12 -14 -4 -27 15 -24 33 -28 40 -8 9 23 -16 47
-36 35z"/>
<path d="M1644 1005 c-4 -9 -2 -21 4 -27 15 -15 44 -1 40 19 -4 23 -36 29 -44
8z"/>
<path d="M1712 1640 c-14 -37 -34 -38 -60 -2 -16 20 -24 24 -32 16 -23 -22 26
-84 65 -84 32 0 67 38 63 69 -4 36 -24 37 -36 1z"/>
</g>
</svg>
